<svg xmlns="http://www.w3.org/2000/svg" width="2048" height="2048" viewBox="0 0 2048 2048"><path fill="none" d="M0 0h2048v2048H0z" style="fill:#fffffe;fill-opacity:0"/><path d="m876.63 437.99 293.75-.002c1.4 50.301.12 107.665.2 158.438l97.1-.005c1.2 46.989-.34 94.639.28 141.696.36 26.838.2 54.186-.12 81.034l97.64-.1c.99 15.878.33 38.012.34 54.453l-.07 104.624c31.85-.575 65.09-.13 97.06-.119.17 82.501-.95 166.811.21 249.091 40.23-.16 80.45-.11 120.68.16.63 24.92.07 52.26.08 77.41l.03 148.59c31.63.95 64.83-.65 96.94.21.29 6.97.21 14.19.18 21.19-.24 45.07.46 90.24-.1 135.3l-315.73-.05c.83-51.7-.19-104.36.3-156.24-32.55-.49-65.32.3-97.83-.4l.1-157.91c-12.88.77-29.91.12-43.12.24-31.59.27-63.38-.37-94.97.04l-239.093-.05c-35.969-.03-74.765.65-110.366-.38.523 52.36.045 105.67-.055 158.1-30.583 1.14-66.806.25-97.829.3.273 8.13.394 16.36.285 24.49-.589 43.8.87 88.11-.407 131.85H366.66c1.007-51.18.179-105.21.227-156.63l97.22-.11c.181-74.94.704-151.14-.172-226 39.054-.97 81.721-.14 121.051-.12-.941-82.19-.052-166.66-.031-249.008l97.064.082.079-159.043 97.326.006c-.593-22.097-.072-46.937-.061-69.289l-.024-153.498c30.291 1.087 66.798.091 97.585.086-.085-52.221.884-106.351-.294-158.436" style="fill:#010101"/><path d="m975.534 715.432 97.196-.086c-1.06 27.153-.23 60.714-.23 88.235l-.09 174.964c32.08.596 65.86.031 98.06.008.58 13.425.09 30.467.08 44.117l.11 87.19-24.91.02c-87.97 1.37-179.988.02-268.248-.01-.781-12.52-.241-32.45-.238-45.38l.055-85.919 97.618.111c-.535-19.919-.007-42.228.007-62.316l.06-123.494c-.004-12.398-1.656-68.353.53-77.44" style="fill:#fffffe"/></svg>