<svg version="1.1" xmlns="http://www.w3.org/2000/svg" viewBox="0 0 2048 2048" width="64" height="64">
<path fill="rgb(248,57,41)" d="M 564.511 963.625 C 559.999 973.696 555.367 983.319 551.778 993.821 C 537.905 1034.41 532.683 1079.63 529.417 1122.21 C 525.762 1169.87 525.977 1218.17 526.389 1265.96 C 526.602 1290.66 536.468 1491.67 530.123 1502.77 C 529.198 1504.38 529.685 1503.86 527.723 1504.34 C 514.86 1498.68 495.747 1417.96 492.147 1403.69 C 480.142 1356.82 469.946 1309.5 461.579 1261.84 C 434.941 1112.02 410.956 941.45 435.471 790.257 C 440.727 757.17 448.436 724.059 461.955 693.694 C 518.214 567.341 640.081 566.386 685.868 700.766 C 701.383 746.3 729.907 890.816 669.688 911.621 L 668.248 912.111 C 662.328 912.161 656.995 912.052 651.211 913.386 C 640.784 915.791 631.678 921.249 621.702 924.764 C 611.964 928.194 601.467 929.565 592.079 934.135 C 586.925 936.622 582.245 939.99 578.248 944.085 C 573.686 948.695 567.587 957.809 564.511 963.625 z"/>
<path fill="rgb(248,57,41)" d="M 1365.67 905.308 C 1344.99 884.558 1341.49 846.139 1341.94 817.058 C 1343.19 736.259 1373.15 603.323 1473.35 599.681 C 1500.44 598.697 1530.95 616.411 1548.44 635.676 C 1614.96 705.103 1625.02 850.542 1623.23 942.264 C 1621.14 1048.5 1604.26 1164.67 1585.55 1269.27 C 1581 1294.71 1573.81 1321.41 1568.48 1346.78 C 1566.58 1355.84 1563.37 1367.38 1561.99 1376.08 C 1559.98 1384.61 1557.42 1397.3 1554.92 1405.37 C 1551.69 1420.65 1533.56 1501.49 1519.85 1505 C 1517.65 1503.1 1516.86 1499.58 1516.79 1496.69 C 1514.16 1383.55 1526.38 1271.02 1521.7 1157.67 C 1519.81 1109.68 1513.43 1061.98 1502.62 1015.2 C 1498.76 1001.76 1495.08 989.367 1489.41 976.541 C 1483.36 961.426 1480.32 954.876 1469.21 942.548 C 1454.95 930.061 1439.66 929.708 1422.48 923.548 C 1415.77 921.141 1406.06 915.783 1399.4 914.244 C 1390.65 912.223 1382.69 911.609 1373.39 909.544 L 1370.03 907.744 L 1365.67 905.308 z"/>
<path fill="rgb(243,48,35)" d="M 1489.41 976.541 C 1494.81 976.148 1493.42 976.767 1498.09 971.417 L 1499.78 971.662 C 1503.81 978.916 1504.12 1007.57 1502.62 1015.2 C 1498.76 1001.76 1495.08 989.367 1489.41 976.541 z"/>
<path fill="rgb(243,48,35)" d="M 1554.92 1405.37 C 1554.08 1395.48 1553.77 1386.93 1552.71 1376.42 C 1556.93 1374.97 1554.11 1377.53 1561.99 1376.08 C 1559.98 1384.61 1557.42 1397.3 1554.92 1405.37 z"/>
<path fill="rgb(243,48,35)" d="M 1365.67 905.308 C 1366.39 899.495 1365.42 899.768 1368.54 896.001 C 1372.94 894.601 1374.05 894.657 1377.67 898.096 C 1376.64 901.286 1374.01 902.677 1371.18 904.691 C 1370.86 906.087 1370.81 906.521 1370.03 907.744 L 1365.67 905.308 z"/>
<path fill="rgb(248,57,41)" d="M 572.85 979.418 C 576.2 969.187 581.265 952.993 589.115 945.573 C 599.157 936.081 616.352 935.466 628.737 930.379 C 635.533 927.588 641.651 922.727 648.693 920.496 C 651.093 919.761 659.205 920.276 661.98 920.384 C 664.43 926.395 659.295 930.896 660.203 940.511 C 660.852 947.382 668.424 964.887 668.478 969.31 C 668.763 992.791 654.117 1034.11 647.352 1057.15 C 645.88 1063.95 642.331 1078.67 640.023 1085.3 C 632.607 1118.1 624.137 1148.61 619.489 1182.3 C 612.901 1230.04 611.762 1279.67 610.238 1327.87 C 609.352 1362.25 608.222 1396.63 606.847 1431 C 605.915 1451.58 604.088 1484.93 599.959 1504.99 C 598.304 1513.98 596.305 1523.6 593.314 1532.26 C 591.954 1536.63 586.986 1548.42 581.138 1546.39 C 575.286 1537.65 558.103 1398.79 557.817 1383.19 C 554.56 1364.35 553.484 1335.45 552.197 1316.1 C 548.145 1255.19 547.077 1194.5 551.236 1133.55 C 552.48 1115.33 554.1 1086.54 557.966 1068.86 C 557.242 1055.21 569.321 993.583 572.85 979.418 z"/>
<path fill="rgb(248,57,41)" d="M 1384.97 926.414 C 1385.71 921.516 1384.81 922.314 1387.66 919.464 C 1392.64 917.814 1397.68 919.411 1403.09 919.704 C 1405.86 921.922 1411.84 926.801 1414.8 928.088 C 1432.38 935.714 1446.08 932.968 1460.95 946.751 C 1479.69 975.485 1487.27 1035.06 1491.59 1069.95 C 1495 1095.53 1496.28 1125.43 1497.32 1151.37 C 1499.97 1209.78 1499.13 1268.29 1494.81 1326.59 C 1494 1337.16 1492.2 1364.38 1490.06 1374.38 C 1490.85 1392.83 1472.22 1538.85 1466.15 1548.49 L 1464.33 1548.79 C 1463.34 1548.02 1462.48 1547.34 1461.68 1546.36 C 1438.2 1517.7 1439.72 1328.78 1437.35 1282.46 C 1435.29 1247.99 1432.14 1213.59 1427.92 1179.32 C 1418.86 1110.68 1395.15 1045.69 1379.29 978.837 C 1376.37 966.517 1396.04 937.614 1384.97 926.414 z"/>
<path fill="rgb(248,57,41)" d="M 883.664 698.11 C 892.17 697.654 895.901 708.44 910.429 706.375 C 926.76 704.276 941.434 697.095 956.436 690.626 C 998.161 672.635 1049.3 673.429 1091.46 689.515 C 1112.86 697.678 1138.65 717.457 1159.9 698.079 C 1161.48 696.644 1162.27 697.088 1164.42 696.877 C 1170.25 707.858 1175.66 718.14 1178.95 730.193 C 1179.97 733.732 1181.34 738.029 1182.1 741.554 C 1190.97 781.666 1190.29 807.384 1148.69 825.453 C 1127.62 832.456 1137.64 802.158 1105.43 793.98 C 1049.31 779.727 984.526 776.873 930.422 799.851 C 916.864 805.609 918.372 823.318 909.076 827.918 C 905.032 828.535 903.506 827.502 899.505 825.988 C 849.614 805.281 859.641 760.425 874.515 718.628 C 876.861 712.036 880.767 705.99 883.065 699.778 L 883.664 698.11 z"/>
<path fill="rgb(248,57,41)" d="M 979.156 1195.8 C 1010.3 1198.66 1038.09 1197.6 1069.16 1196.38 C 1080.98 1251.1 1107.42 1318.67 1085.48 1374.07 C 1079.56 1384.3 1073.2 1392.48 1062.17 1397.75 C 1041.07 1407.84 1011.86 1408.24 990.441 1399.23 L 986.12 1397.41 C 978.04 1392.42 969.967 1386.99 965.431 1378.33 C 940.645 1331.03 966.589 1243.29 979.156 1195.8 z"/>
<path fill="rgb(248,57,41)" d="M 898.308 836.906 C 902.635 835.374 907.675 836.676 913.425 834.71 C 921.843 831.83 923.959 815.578 929.571 812.005 C 964.332 789.871 1019.06 791.067 1058.84 794.28 C 1073.77 795.703 1110.19 800.328 1119.78 812.949 C 1131.88 828.889 1124.87 835.063 1150.27 836.18 C 1155.26 843.514 1164.85 855.971 1168.6 862.871 C 1174.52 873.852 1186.08 894.953 1176.06 905.715 C 1164.54 912.285 1156.78 915.728 1143.57 918.179 C 1120.74 921.102 1127.57 909.249 1116.17 898 C 1099.57 881.614 1061.37 877.618 1038.92 876.586 C 1005.51 875.204 962.55 877.084 934.032 895.966 C 917.88 906.66 933.648 920.671 903.64 917.795 C 893.608 915.167 886.661 913.505 877.47 908.635 C 860.736 898.266 871.742 876.034 879.58 862.932 C 884.226 855.574 895.506 842.493 898.308 836.906 z"/>
<path fill="rgb(248,57,41)" d="M 955.722 895.179 C 988.559 882.769 1053.86 881.864 1087.53 893.121 C 1116.24 901.34 1110.04 907.973 1123.78 925.043 C 1132 927.861 1134.8 927.895 1143.56 928.621 C 1153.95 936.466 1166.78 965.421 1168.99 978.648 C 1172.2 997.899 1159.92 997.656 1146.34 1000.8 C 1136.21 1001.93 1117.44 1004.02 1109.45 996.564 C 1107.66 994.887 1101.09 986.669 1099.05 985.808 C 1066.23 971.907 1016.7 973.407 981.955 977.793 C 971.122 979.16 955.93 981.859 947.62 987.655 C 945.743 988.964 939.713 997.092 938.211 999.099 C 926.453 1002.08 922.583 1002.11 910.386 1001.44 C 899.15 999.68 889.267 998.563 880.107 991.297 L 878.916 988.137 C 879.303 982.592 880.227 977.099 881.675 971.733 C 885.695 956.718 893.631 936.641 907.654 928.517 L 924.069 925.707 C 935.137 910.02 935.795 903.206 955.722 895.179 z"/>
<path fill="rgb(248,57,41)" d="M 917.034 1013.9 C 926.362 1008.55 929.342 1011.25 938.376 1007.57 C 944.517 1005.06 951.251 995.426 957.511 992.945 C 991.001 979.671 1053.67 981.396 1086.36 990.36 C 1089.33 991.179 1092.29 992.034 1095.24 992.925 C 1102.64 1002.32 1106.87 1007.3 1119.28 1009.77 C 1134.06 1012.71 1139.48 1021.51 1147.45 1033.04 C 1152.26 1041.18 1170.52 1075.38 1158.25 1082.13 C 1148.21 1087.66 1128.12 1085.3 1116.52 1085.9 C 1112.43 1085.49 1107 1085.06 1103.18 1083.86 C 1097.83 1082.18 1083.15 1074.28 1078.04 1074.19 C 1059.87 1073.84 1044.72 1080.16 1024.92 1080.19 C 1004.76 1080.22 990.143 1074.17 971.165 1074.16 C 965.95 1074.16 953.692 1081.26 946.097 1083.63 L 944.662 1084.07 C 935.142 1083.87 889.065 1093.11 887.786 1077.09 C 886.478 1060.7 896.543 1038.33 907.668 1026.35 C 910.225 1023.6 915.269 1017.22 917.034 1013.9 z"/>
<path fill="rgb(248,57,41)" d="M 973.076 1082.68 C 1025.47 1091.02 1022.9 1091.78 1075.12 1082.48 C 1081.15 1084.96 1090.38 1090.28 1094.78 1091.79 C 1102.86 1093.92 1110.88 1095.3 1119.09 1096.81 C 1125.75 1103.24 1132.54 1109.62 1137.76 1117.32 C 1142.83 1124.99 1153.71 1144.37 1146.36 1152.52 C 1139.88 1154.63 1130.38 1147.53 1121.28 1145.33 L 1120.47 1144.77 C 1105.57 1141.88 1100.49 1147.52 1093.51 1160.29 C 1076.93 1190.64 1060.81 1190.64 1029.38 1189.46 C 1014.92 1188.98 999.832 1191.25 985.518 1189 C 974.715 1187.3 965.528 1178.11 959.644 1169.35 C 955.008 1162.44 948.894 1146.23 940.738 1143.89 C 927.28 1140.05 914.922 1150.33 902.294 1152.14 C 894.945 1136.1 916.472 1107.39 928.083 1097.07 C 940.128 1094.87 951.238 1093.47 962.506 1088.64 C 965.834 1086.73 969.706 1084.37 973.076 1082.68 z"/>
<path fill="rgb(248,57,41)" d="M 890.582 687.124 C 897.518 679.844 901.614 664.316 907.251 655.457 C 950.578 587.369 1064.53 583.465 1123.1 633.006 C 1131.94 640.486 1138.69 650.072 1144.58 659.88 C 1147.97 665.132 1155.74 685.105 1157.93 686.736 C 1157.02 698.837 1143.33 699.673 1134.21 697.32 C 1116.88 692.848 1098.7 684.729 1082.02 678.311 C 1032.27 659.163 982.914 667.788 935.95 689.872 C 926.317 694.231 906.462 700.108 896.72 695.144 C 892.469 692.978 892.209 691.369 890.582 687.124 z"/>
<path fill="rgb(248,57,41)" d="M 1149.43 1173.96 L 1150.96 1174.71 C 1163.49 1180.79 1180.01 1185.93 1192.24 1192.6 C 1215.79 1205.45 1278.65 1255.87 1275.3 1284.67 C 1262.05 1312.36 1205.74 1343.63 1178.3 1357.92 C 1178.51 1354.78 1178.68 1351.64 1178.81 1348.5 C 1180.5 1306.39 1168.22 1272.53 1146.93 1236.95 C 1141.37 1227.66 1135.11 1215.67 1127.82 1207.81 C 1143.33 1191.84 1139.76 1191.13 1148.95 1174.79 L 1149.43 1173.96 z"/>
<path fill="rgb(248,57,41)" d="M 896.799 1174.27 C 900.734 1177.35 903.367 1185.4 906.289 1190.19 C 910.858 1197.66 913.947 1200.86 920.266 1207.02 C 904.897 1229.02 893.312 1248.65 882.946 1273.53 C 879.234 1282.44 877.074 1291.73 873.928 1299.41 C 872.483 1310.7 869.8 1316.91 869.301 1329.08 C 869.917 1333.24 869.89 1349.84 869.47 1353.8 L 868.097 1354.51 C 855.065 1352.29 809.678 1322.75 798.246 1312.87 C 786.615 1302.81 774.913 1293.96 773.322 1277.94 C 784.993 1246.45 830.397 1205.55 860.336 1189.85 C 869.962 1184.81 885.093 1180.04 895.795 1174.78 L 896.799 1174.27 z"/>
<path fill="rgb(248,57,41)" d="M 926.111 1213.19 C 934.118 1217.39 942.221 1221.4 950.412 1225.22 C 954.346 1226.32 955.745 1226.4 958.885 1228.82 C 959.208 1229.58 959.53 1230.34 959.853 1231.1 C 952.499 1274.44 939.581 1318.6 950.331 1362.71 C 952.701 1372.43 961.337 1389.1 966.657 1397.61 C 966.422 1399.32 966.518 1399.57 965.911 1401.15 C 932.629 1405.12 904.887 1401.69 884.082 1370.75 C 882.244 1368.01 880.071 1360.82 878.529 1357.33 C 870.652 1314.81 893.918 1263.15 916.304 1227.72 C 918.9 1222.46 922.199 1217.57 926.111 1213.19 z"/>
<path fill="rgb(248,57,41)" d="M 1098.85 1226.27 C 1108.38 1221.38 1113.75 1217.75 1122.54 1211.79 C 1125.13 1215.28 1127.3 1219.21 1129.52 1222.97 C 1131.03 1225.66 1135.59 1233.41 1136.69 1235.88 C 1139.32 1240.54 1141.95 1245.1 1144.37 1249.88 C 1162.27 1284.39 1176.55 1318.29 1169.03 1358.02 C 1154.12 1399.84 1118.74 1408.53 1078.49 1399.17 C 1084.55 1391.74 1088.15 1387.65 1092.51 1379.04 C 1112.83 1331.24 1098 1279.56 1086.87 1231.25 C 1090.65 1229.25 1094.84 1227.8 1098.85 1226.27 z"/>
<path fill="rgb(248,57,41)" d="M 1179.86 1369.78 C 1180.06 1368.39 1180.77 1364.46 1181.9 1363.87 C 1189.11 1360.05 1197.61 1355.57 1204.58 1351.61 C 1216.14 1344.91 1227.49 1337.86 1238.62 1330.46 C 1251.5 1321.9 1263.43 1310.62 1275.48 1300.9 C 1277.88 1298.97 1279.26 1299.83 1282.34 1300.33 L 1282.69 1302.01 C 1283.97 1307.97 1286.61 1313.92 1287.38 1319.89 C 1293.37 1366.51 1232.89 1404.12 1192.95 1380.97 C 1188.16 1378.2 1184.01 1372.79 1179.86 1369.78 z"/>
<path fill="rgb(248,57,41)" d="M 765.652 1300.68 C 767.631 1299.88 770.636 1298.45 772.422 1299.99 C 785.444 1311.16 801.422 1324.05 814.599 1334.1 C 830.993 1346.59 855.078 1354.41 868.433 1365.67 C 859.93 1384.17 839.091 1389.46 820.419 1387.03 C 801.721 1384.65 784.756 1374.88 773.31 1359.9 C 763.474 1346.94 758.978 1332.53 762.213 1316.35 C 763.053 1312.15 765.016 1305.87 765.484 1302.13 L 765.652 1300.68 z"/>
</svg>
